<?xml version="1.0" encoding="utf-8"?>
<!-- Generator: Adobe Illustrator 26.0.1, SVG Export Plug-In . SVG Version: 6.00 Build 0)  -->
<svg version="1.1" id="Calque_1" xmlns="http://www.w3.org/2000/svg" xmlns:xlink="http://www.w3.org/1999/xlink" x="0px" y="0px"
	 viewBox="0 0 70.7 24.6" style="enable-background:new 0 0 70.7 24.6;" xml:space="preserve" width="1em" height="1em">
<style type="text/css">
	.st0{fill:#CF4D12;}
</style>
<g>
	<g>
		<path class="st0" d="M39.2,20.2c0-0.5,0.4-0.6,0.6-0.6c0.2,0,0.6,0.1,0.6,0.6v0.2h0c0.2-0.5,0.7-0.9,1.5-0.9
			c0.7,0,1.2,0.4,1.5,0.9c0.3-0.6,0.9-0.9,1.6-0.9c1.2,0,1.8,1,1.8,1.9v2.4c0,0.6-0.4,0.7-0.6,0.7s-0.6-0.1-0.6-0.7v-2.1
			c0-0.6-0.1-1.3-0.9-1.3c-0.7,0-1.1,0.7-1.1,1.3v2c0,0.6-0.4,0.7-0.6,0.7s-0.6-0.1-0.6-0.7v-2.3c0-0.6-0.3-1-0.9-1
			c-0.7,0-1,0.7-1,1.3v2c0,0.6-0.4,0.7-0.6,0.7c-0.2,0-0.6-0.1-0.6-0.7V20.2z"/>
		<path class="st0" d="M51.6,24.6c-0.2,0-0.6-0.1-0.6-0.6v-0.1h0c-0.7,1.1-3.3,1-3.3-0.8c0-1.4,1.8-1.6,3.3-1.6v-0.1
			c0-0.6-0.5-0.9-1.1-0.9c-0.4,0-0.7,0.2-1,0.4c-0.6,0.4-1.1-0.4-0.5-0.8c0.4-0.3,1-0.5,1.6-0.5c1.7,0,2.1,1.1,2.1,2v2.4
			C52.1,24.5,51.8,24.6,51.6,24.6z M50.7,22.3c-0.8,0-1.8,0.1-1.8,0.8c0,0.5,0.4,0.6,0.8,0.6c0.8,0,1.3-0.5,1.3-1.2v-0.2H50.7z"/>
		<path class="st0" d="M54.1,24.6c-0.2,0-0.6-0.1-0.6-0.7v-3.6c0-0.5,0.4-0.6,0.6-0.6c0.2,0,0.6,0.1,0.6,0.6v0.2h0
			c0.2-0.5,0.7-0.9,1.2-0.9c0.4,0,0.6,0.2,0.6,0.5c0,0.3-0.2,0.6-0.6,0.6c-0.8,0-1.2,0.6-1.2,1.4v1.9C54.7,24.5,54.3,24.6,54.1,24.6
			z"/>
		<path class="st0" d="M61.6,24c0,0.3-0.2,0.6-0.6,0.6c-0.2,0-0.4-0.1-0.6-0.3l-2-2.2h0v1.9c0,0.6-0.4,0.7-0.6,0.7
			c-0.2,0-0.6-0.1-0.6-0.7v-6.4c0-0.6,0.4-0.7,0.6-0.7c0.2,0,0.6,0.1,0.6,0.7v4.2h0l1.9-1.9c0.7-0.7,1.5,0.2,0.8,0.8l-1.4,1.2
			l1.6,1.7C61.6,23.7,61.6,23.9,61.6,24z"/>
		<path class="st0" d="M63.3,22.5c0.1,0.7,0.7,1.2,1.4,1.2c0.5,0,0.8-0.2,1.1-0.4c0.2-0.1,0.3-0.2,0.4-0.2c0.5,0,0.6,0.6,0.3,0.9
			c-0.5,0.4-1,0.6-1.8,0.6c-1.5,0-2.6-0.9-2.6-2.5c0-1.5,1.1-2.6,2.5-2.6c1.2,0,2.1,0.7,2.3,2.1c0,0.1,0,0.2,0,0.2
			c0,0.4-0.2,0.6-0.6,0.6H63.3z M65.7,21.6c0-1.7-2.3-1.4-2.4,0H65.7z"/>
		<path class="st0" d="M69.7,24.6c-1.3,0-1.5-0.8-1.5-1.7v-2.2h-0.4c-0.5,0-0.5-0.3-0.5-0.5c0-0.2,0.1-0.5,0.5-0.5h0.4v-0.8
			c0-0.5,0.4-0.6,0.6-0.6c0.2,0,0.6,0.1,0.6,0.6v0.8h0.7c0.5,0,0.5,0.3,0.5,0.5c0,0.2-0.1,0.5-0.5,0.5h-0.7v2.2
			c0,0.5,0.2,0.7,0.5,0.7c0.1,0,0.2,0,0.3,0c0.5,0,0.6,0.7,0.2,0.9C70.2,24.5,70,24.6,69.7,24.6z"/>
	</g>
	<g>
		<path class="st0" d="M22.6,13.5L22.6,13.5c-0.7,1-1.5,1.4-2.7,1.4c-2.2,0-4.2-1.8-4.2-4.8c0-3,1.9-4.8,4.2-4.8
			c1.1,0,2,0.4,2.6,1.3h0v-1h3c0,0,0,0,0,0v9.1c0,0,0,0,0,0h-2.9c0,0,0,0,0,0V13.5z M22.6,10.1c0-2.7-3.8-2.7-3.8,0
			c0,1.2,0.8,2.1,1.9,2.1C21.8,12.2,22.6,11.3,22.6,10.1z"/>
		<path class="st0" d="M27.5,5.6h2.9c0,0,0,0,0,0v1.6h0.1c0.5-1.1,1.5-1.6,2.7-1.6c0,0,0,0,0,0v2.8c0,0,0,0,0,0
			c-1.8,0-2.8,0.6-2.8,2.8v3.4c0,0,0,0,0,0h-3c0,0,0,0,0,0L27.5,5.6C27.5,5.6,27.5,5.6,27.5,5.6z"/>
		<path class="st0" d="M46.3,13.5L46.3,13.5c-0.7,1-1.5,1.4-2.7,1.4c-2.2,0-4.2-1.8-4.2-4.8c0-3,1.9-4.8,4.2-4.8
			c1.1,0,2,0.4,2.6,1.3h0v-1h3c0,0,0,0,0,0v9.1c0,0,0,0,0,0h-2.9c0,0,0,0,0,0V13.5z M46.2,10.1c0-2.7-3.8-2.7-3.8,0
			c0,1.2,0.8,2.1,1.9,2.1C45.4,12.2,46.2,11.3,46.2,10.1z"/>
		<path class="st0" d="M51.1,5.6C51.1,5.6,51.2,5.6,51.1,5.6l3,0v1h0.1c0.5-0.8,1.2-1.2,2.2-1.2c2.1-0.2,3.9,1.6,3.9,3.7v5.6
			c0,0,0,0,0,0h-3c0,0,0,0,0,0v-4.5c0-1.2-0.4-2.1-1.5-2.1c-1,0-1.6,0.8-1.6,2.3v4.3c0,0,0,0,0,0h-3c0,0,0,0,0,0V5.6z"/>
		<path class="st0" d="M64.8,10.7C64.7,10.7,64.7,10.8,64.8,10.7c0.2,1.1,0.8,1.6,1.7,1.6c0.7,0,1.3-0.4,1.6-1.1c0,0,0,0,0,0
			l2.3,0.9c0,0,0,0,0,0c-0.4,1.4-1.9,2.7-4.1,2.7c-2.9,0-4.7-1.9-4.7-4.8c0-2.8,1.8-4.8,4.6-4.8c2.9,0,4.4,2,4.4,4.6
			c0,0.3,0,0.6-0.1,0.8H64.8z M64.7,9.1h2.9c0-0.8-0.6-1.4-1.4-1.4C65.5,7.8,64.9,8.3,64.7,9.1z"/>
		<path class="st0" d="M34.9,3.3c0-0.9,0.7-1.6,1.6-1.6c0.9,0,1.6,0.7,1.6,1.6c0,0.9-0.7,1.6-1.6,1.6C35.6,4.9,34.9,4.2,34.9,3.3z"
			/>
		<path class="st0" d="M34.9,14.7c0,0.6,0,1.4-1.1,1.4h-0.4v2h0.8c3.3,0,3.8-1.4,3.8-3.5v-9c0,0,0,0,0,0h-3c0,0,0,0,0,0V14.7z"/>
		<path class="st0" d="M10.6,3.4c0,1.9-1.5,3.4-3.4,3.4c-1.9,0-3.4-1.5-3.4-3.4C3.8,1.5,5.4,0,7.2,0C9.1,0,10.6,1.5,10.6,3.4z"/>
		<path class="st0" d="M11.5,5.3C11.5,5.3,11.5,5.4,11.5,5.3C10.7,7,9.1,8.1,7.2,8.1c-1.8,0-3.4-1-4.2-2.5c0,0,0,0,0,0H0
			c0,0,0,0,0,0v9.1c0,0,0,0,0,0h3c0,0,0,0,0,0v-4.5c0-0.7,0.4-1.3,1.1-1.4C5,8.7,5.6,9.3,5.6,10.1v4.6c0,0,0,0,0,0h3.1c0,0,0,0,0,0
			v-4.5c0-0.7,0.4-1.3,1.1-1.4c0.8-0.1,1.5,0.5,1.5,1.3v4.6c0,0,0,0,0,0h3c0,0,0,0,0,0V9C14.5,6.9,13.4,5.5,11.5,5.3z"/>
	</g>
</g>
</svg>
